# xmcd
#
# Track frame offsets: 
#        150
#        18416
#        34134
#        51449
#        76267
#        93891
#        108324
#        130987
#        151402
#        167669
#        184695
#
# Disc length: 2684 seconds
#
# Revision: 0
# Processed by: cddbd v1.5.2PL0 Copyright (c) Steve Scherf et al.
# Submitted via: ExactAudioCopy v0.95b4
#
DISCID=830a7a0b
DTITLE=Downchild - Can You Hear The Music
DYEAR=2013
DGENRE=Blues
TTITLE0=Can You Hear The Music
TTITLE1=I'm Always Here For You
TTITLE2=I Need A Woman
TTITLE3=Blue Moon Blues
TTITLE4=Fasten Your Seat Belt
TTITLE5=This Road
TTITLE6=My Mississippi Queen
TTITLE7=One In A Million
TTITLE8=Don't Wait Up For Me
TTITLE9=Worn In
TTITLE10=Scattered
EXTD=
EXTT0=
EXTT1=
EXTT2=
EXTT3=
EXTT4=
EXTT5=
EXTT6=
EXTT7=
EXTT8=
EXTT9=
EXTT10=
PLAYORDER=
